<?xml version="1.0" encoding="utf-8"?>
<!-- Generator: Adobe Illustrator 16.0.0, SVG Export Plug-In . SVG Version: 6.00 Build 0)  -->
<!DOCTYPE svg PUBLIC "-//W3C//DTD SVG 1.1//EN" "http://www.w3.org/Graphics/SVG/1.1/DTD/svg11.dtd">
<svg version="1.1" id="Layer_1" xmlns="http://www.w3.org/2000/svg" xmlns:xlink="http://www.w3.org/1999/xlink" x="0px" y="0px"
	 width="550px" height="550px" viewBox="0 0 550 550" enable-background="new 0 0 550 550" xml:space="preserve">
<path fill="#FFFFFF" d="M274.999,0C123.122,0,0,123.122,0,275C0,426.879,123.122,550,274.999,550C426.877,550,550,426.879,550,275
	C550,123.122,426.877,0,274.999,0z M424.456,148.953L275.001,253.392L125.544,148.953H424.456z M455.067,383.042
	c0,9.004-9.004,18.006-18.006,18.006H112.938c-9.003,0-18.007-9.002-18.007-18.006V170.561l169.265,118.844
	c5.402,3.601,14.404,3.601,19.808,0l171.063-118.844V383.042z"/>
</svg>
