<?xml version="1.0" encoding="utf-8"?>
<!-- Generator: Adobe Illustrator 16.0.0, SVG Export Plug-In . SVG Version: 6.00 Build 0)  -->
<!DOCTYPE svg PUBLIC "-//W3C//DTD SVG 1.1//EN" "http://www.w3.org/Graphics/SVG/1.1/DTD/svg11.dtd">
<svg version="1.1" id="Layer_1" xmlns="http://www.w3.org/2000/svg" xmlns:xlink="http://www.w3.org/1999/xlink" x="0px" y="0px"
	 width="550px" height="538.548px" viewBox="0 0 550 538.548" enable-background="new 0 0 550 538.548" xml:space="preserve">
<g>
	<g>
		<path fill="#FFFFFF" d="M274.966,0C123.131,0,0,123.612,0,276.101c0,121.961,78.787,225.43,188.1,261.972
			c13.75,2.542,18.769-5.982,18.769-13.304c0-6.566-0.241-23.926-0.378-46.957c-76.484,16.672-92.641-37.021-92.641-37.021
			c-12.478-31.899-30.525-40.391-30.525-40.391c-24.99-17.118,1.856-16.775,1.856-16.775c27.604,1.96,42.109,28.463,42.109,28.463
			c24.544,42.178,64.384,30.009,80.06,22.928c2.475-17.841,9.591-30.009,17.463-36.919C163.762,391.118,99.55,367.434,99.55,261.662
			c0-30.147,10.726-54.794,28.325-74.113c-2.854-6.978-12.272-35.063,2.682-73.047c0,0,23.1-7.425,75.625,28.291
			c21.931-6.119,45.443-9.178,68.853-9.281c23.341,0.137,46.888,3.162,68.854,9.315c52.49-35.715,75.556-28.291,75.556-28.291
			c14.987,38.019,5.568,66.069,2.749,73.047c17.636,19.319,28.257,43.965,28.257,74.112c0,106.047-64.281,129.388-125.537,136.229
			c9.864,8.525,18.665,25.369,18.665,51.115c0,36.919-0.344,66.688-0.344,75.728c0,7.39,4.95,15.983,18.907,13.269
			C471.281,501.46,550,398.025,550,276.098C549.999,123.612,426.868,0,274.966,0z"/>
	</g>
</g>
</svg>
