<?xml version="1.0" encoding="utf-8"?>
<!-- Generator: Adobe Illustrator 16.0.0, SVG Export Plug-In . SVG Version: 6.00 Build 0)  -->
<!DOCTYPE svg PUBLIC "-//W3C//DTD SVG 1.1//EN" "http://www.w3.org/Graphics/SVG/1.1/DTD/svg11.dtd">
<svg version="1.1" id="Layer_1" xmlns="http://www.w3.org/2000/svg" xmlns:xlink="http://www.w3.org/1999/xlink" x="0px" y="0px"
	 width="250px" height="250px" viewBox="0 0 250 250" enable-background="new 0 0 250 250" xml:space="preserve">
<g>
	<path fill="#49CBBF" d="M234.863,110.025L15.141,110C6.781,110,0,116.704,0,124.985c-0.002,8.278,6.775,14.987,15.137,14.988
		L234.859,140c6.479,0,12.008-4.028,14.17-9.694c0.627-1.645,0.971-3.429,0.971-5.292
		C250.002,116.736,243.223,110.027,234.863,110.025z"/>
	<path fill="#49CBBF" d="M234.863,181.85l-219.723-0.026C6.782,181.824,0,188.527,0,196.809
		c-0.002,8.277,6.775,14.987,15.137,14.988l219.723,0.027c6.479,0,12.009-4.028,14.171-9.694c0.627-1.644,0.97-3.428,0.97-5.292
		C250.002,188.562,243.224,181.852,234.863,181.85z"/>
	<path fill="#49CBBF" d="M234.863,35.833L15.141,35.807C6.781,35.807,0,42.51,0,50.792c-0.002,8.277,6.775,14.985,15.137,14.988
		l219.723,0.026c6.479,0,12.008-4.028,14.17-9.694c0.627-1.643,0.971-3.428,0.971-5.292
		C250.002,42.544,243.223,35.834,234.863,35.833z"/>
</g>
</svg>
