<?xml version="1.0" encoding="utf-8"?>
<!-- Generator: Adobe Illustrator 16.0.0, SVG Export Plug-In . SVG Version: 6.00 Build 0)  -->
<!DOCTYPE svg PUBLIC "-//W3C//DTD SVG 1.1//EN" "http://www.w3.org/Graphics/SVG/1.1/DTD/svg11.dtd">
<svg version="1.1" id="Layer_1" xmlns="http://www.w3.org/2000/svg" xmlns:xlink="http://www.w3.org/1999/xlink" x="0px" y="0px"
	 width="550px" height="550px" viewBox="0 0 550 550" enable-background="new 0 0 550 550" xml:space="preserve">
<g>
	<path fill="none" d="M466.362,395.23c0.028-46.315,0.032-92.631-0.008-138.947c-0.002-1.604,0.002-3.271-0.953-4.798
		c-1.805-2.886-8.212-4.618-15.039-4.385c-7.039,0.24-12.2,2.224-13.057,5.334c-0.551,1.995-0.355,4.031-0.357,6.049
		c-0.02,23.625-0.013,47.251-0.013,70.876c0.007,0,0.016,30.829,0.025,55.603c-108.051-0.03-216.1-0.034-324.148,0.005
		c0.027-75.14,0.029-150.28-0.004-225.419c27.984,0.01,55.969,0.01,83.953,0.01c0-0.008,66.965-0.021,100.447-0.032
		c2.231,0,4.482,0.193,6.689-0.229c4.536-0.869,7.177-5.498,7.516-12.639c0.385-8.144-1.891-14.056-6.407-15.836
		c-1.87-0.737-3.874-0.685-5.817-0.687c-66.5-0.033-132.999-0.037-199.498,0.004c-0.943-0.076-1.906-0.095-2.879-0.038
		c-0.152,0.009-0.3,0.027-0.451,0.039c-0.192,0-0.385,0-0.577,0c-2.216,0.001-4.521-0.002-6.63,0.953
		c-2.101,0.951-3.752,3.185-4.804,6.077c-0.187,0.449-0.335,0.917-0.45,1.402c-0.637,2.291-0.931,4.891-0.805,7.56
		c0.048,1.022,0.152,1.999,0.3,2.934c0.001,0.183,0.003,0.365,0.003,0.547c-0.02,40.494-0.013,80.988-0.013,121.481
		c0.009,0,0.021,83.064,0.032,124.596c0,0.292-0.003,0.586-0.006,0.879c-0.303,1.415-0.416,2.891-0.297,4.391
		c0.084,1.065,0.272,2.082,0.537,3.053c0.439,2.81,1.82,5.032,3.983,6.603c2.04,1.824,4.703,3.027,7.868,3.402
		c4.633,0.55,9.363,0.355,14.05,0.357c54.869,0.019,109.739,0.012,164.608,0.012c0-0.008,112.552-0.021,168.828-0.032"/>
	<path fill="none" d="M459.854,194.166c-32.088-25.088-64.282-50.042-96.379-75.12c-4.879-3.812-9.697-8.318-16.291-4.945
		c-5.973,3.056-5.393,9.28-5.4,14.911c-0.018,11.142-0.006,22.284-0.006,34.108c-7.036,1.281-12.932,2.464-18.865,3.417
		c-34.725,5.579-67.013,17.177-95.074,38.918c-30.689,23.776-50.295,55.304-61.297,91.987c-5.752,19.176-9.114,39.097-12.988,58.793
		c-1.324,6.733,1.811,10.656,7.102,11.621c5.699,1.039,9.377-1.224,11.658-7.359c0.647-1.741,0.854-3.641,1.371-5.437
		c9.901-34.348,31.34-59.051,62.904-75.332c29.623-15.28,61.637-21.523,94.361-25.083c2.644-0.288,5.346-0.038,8.692-0.038
		c0.325,4.579,0.718,8.227,0.816,11.882c0.2,7.49-0.005,14.998,0.411,22.474c0.58,10.443,7.018,14.074,16.043,9.188
		c2.443-1.323,4.561-3.266,6.781-4.984c20.729-16.05,41.453-32.109,62.172-48.174c11.469-8.894,22.994-17.717,34.367-26.731
		C471.929,208.989,471.868,203.559,459.854,194.166z"/>
	<path fill="#49CBBF" d="M275,0C123.122,0,0,123.122,0,275c0,151.878,123.122,275,275,275s275-123.122,275-275
		C550,123.122,426.878,0,275,0z M442.99,414.356c-56.276,0.01-168.828,0.024-168.828,0.032c-54.869,0-109.739,0.007-164.608-0.012
		c-4.687-0.002-9.417,0.192-14.05-0.357c-3.165-0.375-5.828-1.578-7.868-3.402c-2.163-1.571-3.544-3.793-3.983-6.603
		c-0.265-0.971-0.453-1.987-0.537-3.053c-0.119-1.5-0.006-2.976,0.297-4.391c0.003-0.293,0.006-0.586,0.006-0.879
		c-0.012-41.532-0.023-124.596-0.032-124.596c0-40.494-0.007-80.988,0.013-121.481c0-0.182-0.002-0.365-0.003-0.547
		c-0.147-0.936-0.252-1.912-0.3-2.934c-0.126-2.669,0.168-5.269,0.805-7.56c0.115-0.485,0.264-0.953,0.45-1.402
		c1.052-2.893,2.703-5.126,4.804-6.077c2.109-0.955,4.414-0.952,6.63-0.953c0.192,0,0.385,0,0.577,0
		c0.151-0.012,0.299-0.03,0.451-0.039c0.973-0.057,1.936-0.038,2.879,0.038c66.499-0.041,132.998-0.037,199.498-0.004
		c1.943,0.001,3.947-0.05,5.817,0.687c4.517,1.78,6.792,7.692,6.407,15.836c-0.339,7.141-2.979,11.771-7.516,12.639
		c-2.207,0.422-4.458,0.229-6.689,0.229c-33.482,0.011-100.447,0.024-100.447,0.032c-27.984,0-55.969,0-83.953-0.01
		c0.033,75.139,0.031,150.279,0.004,225.419c108.049-0.039,216.098-0.035,324.148-0.005c-0.01-24.774-0.019-55.603-0.025-55.603
		c0-23.625-0.007-47.251,0.013-70.876c0.002-2.018-0.193-4.055,0.357-6.049c0.856-3.11,6.018-5.095,13.057-5.334
		c6.827-0.233,13.234,1.499,15.039,4.385c0.955,1.527,0.951,3.194,0.953,4.798c0.04,46.315,0.036,92.631,0.008,138.947
		C466.362,395.23,465.095,414.353,442.99,414.356z M460.232,218.26c-11.373,9.015-22.898,17.838-34.367,26.731
		c-20.719,16.065-41.442,32.125-62.172,48.174c-2.221,1.719-4.338,3.661-6.781,4.984c-9.025,4.887-15.463,1.256-16.043-9.188
		c-0.416-7.476-0.211-14.984-0.411-22.474c-0.099-3.656-0.491-7.304-0.816-11.882c-3.347,0-6.049-0.25-8.692,0.038
		c-32.725,3.559-64.738,9.803-94.361,25.083c-31.564,16.281-53.003,40.984-62.904,75.332c-0.518,1.796-0.724,3.696-1.371,5.437
		c-2.281,6.136-5.959,8.398-11.658,7.359c-5.291-0.965-8.426-4.887-7.102-11.621c3.874-19.696,7.236-39.617,12.988-58.793
		c11.002-36.683,30.607-68.211,61.297-91.987c28.062-21.741,60.35-33.339,95.074-38.918c5.934-0.953,11.829-2.136,18.865-3.417
		c0-11.824-0.012-22.966,0.006-34.108c0.008-5.63-0.572-11.854,5.4-14.911c6.594-3.373,11.412,1.133,16.291,4.945
		c32.097,25.078,64.291,50.032,96.379,75.12C471.868,203.559,471.929,208.989,460.232,218.26z"/>
</g>
</svg>
