<?xml version="1.0" encoding="utf-8"?>
<!-- Generator: Adobe Illustrator 16.0.0, SVG Export Plug-In . SVG Version: 6.00 Build 0)  -->
<!DOCTYPE svg PUBLIC "-//W3C//DTD SVG 1.1//EN" "http://www.w3.org/Graphics/SVG/1.1/DTD/svg11.dtd">
<svg version="1.1" id="Layer_1" xmlns="http://www.w3.org/2000/svg" xmlns:xlink="http://www.w3.org/1999/xlink" x="0px" y="0px"
	 width="550px" height="550px" viewBox="0 0 550 550" enable-background="new 0 0 550 550" xml:space="preserve">
<path fill="#49CBBF" d="M275,0C123.122,0,0,123.122,0,275c0,151.878,123.122,275,275,275s275-123.122,275-275
	C550,123.122,426.878,0,275,0z M357.728,147.356c0.007-5.16-0.524-10.863,4.948-13.664c6.043-3.091,10.459,1.038,14.93,4.531
	c29.412,22.981,58.915,45.849,88.32,68.839c11.01,8.608,11.065,13.584,0.347,22.08c-10.422,8.261-20.983,16.346-31.493,24.496
	c-18.986,14.722-37.978,29.438-56.974,44.146c-2.035,1.575-3.976,3.354-6.214,4.567c-8.271,4.478-14.17,1.151-14.702-8.419
	c-0.381-6.851-0.193-13.731-0.376-20.594c-0.091-3.35-0.451-6.693-0.749-10.889c-3.066,0-5.543-0.229-7.966,0.035
	c-29.988,3.261-59.324,8.983-86.471,22.985c-28.926,14.92-48.571,37.557-57.645,69.033c-0.475,1.646-0.663,3.387-1.257,4.982
	c-2.091,5.623-5.46,7.696-10.683,6.744c-4.85-0.884-7.722-4.479-6.508-10.648c3.55-18.049,6.631-36.305,11.901-53.877
	c10.082-33.616,28.049-62.508,56.172-84.296c25.716-19.923,55.304-30.552,87.125-35.664c5.438-0.874,10.84-1.958,17.288-3.131
	C357.723,167.777,357.711,157.566,357.728,147.356z M452.357,417.344c-56.276,0.01-168.828,0.024-168.828,0.032
	c-54.869,0-109.739,0.007-164.608-0.012c-4.687-0.002-9.417,0.192-14.05-0.357c-3.165-0.375-5.828-1.578-7.868-3.402
	c-2.163-1.571-3.544-3.793-3.983-6.603c-0.265-0.971-0.453-1.987-0.537-3.053c-0.119-1.5-0.006-2.976,0.297-4.391
	c0.003-0.293,0.006-0.586,0.006-0.879c-0.012-41.532-0.023-124.596-0.032-124.596c0-40.494-0.007-80.988,0.013-121.481
	c0-0.182-0.002-0.365-0.003-0.547c-0.147-0.936-0.252-1.912-0.3-2.934c-0.126-2.669,0.168-5.269,0.805-7.56
	c0.115-0.485,0.264-0.953,0.45-1.402c1.052-2.893,2.703-5.126,4.804-6.077c2.109-0.955,4.414-0.952,6.63-0.953
	c0.192,0,0.385,0,0.577,0c0.151-0.012,0.299-0.03,0.451-0.039c0.973-0.057,1.936-0.038,2.879,0.038
	c66.499-0.041,132.998-0.037,199.498-0.004c1.943,0.001,3.947-0.05,5.817,0.687c4.517,1.78,6.792,7.692,6.407,15.836
	c-0.339,7.141-2.979,11.771-7.516,12.639c-2.207,0.422-4.458,0.229-6.689,0.229c-33.482,0.011-100.447,0.024-100.447,0.032
	c-27.984,0-55.969,0-83.953-0.01c0.033,75.139,0.031,150.279,0.004,225.419c108.049-0.039,216.098-0.035,324.148-0.005
	c-0.01-24.774-0.019-55.603-0.025-55.603c0-23.625-0.007-47.251,0.013-70.876c0.002-2.018-0.193-4.055,0.357-6.049
	c0.856-3.11,6.018-5.095,13.057-5.334c6.827-0.233,13.234,1.499,15.039,4.385c0.955,1.527,0.951,3.194,0.953,4.798
	c0.04,46.315,0.036,92.631,0.008,138.947C475.729,398.217,474.462,417.34,452.357,417.344z"/>
</svg>
