<?xml version="1.0" encoding="utf-8"?>
<!-- Generator: Adobe Illustrator 16.0.0, SVG Export Plug-In . SVG Version: 6.00 Build 0)  -->
<!DOCTYPE svg PUBLIC "-//W3C//DTD SVG 1.1//EN" "http://www.w3.org/Graphics/SVG/1.1/DTD/svg11.dtd">
<svg version="1.1" id="Layer_1" xmlns="http://www.w3.org/2000/svg" xmlns:xlink="http://www.w3.org/1999/xlink" x="0px" y="0px"
	 width="550px" height="550px" viewBox="0 0 550 550" enable-background="new 0 0 550 550" xml:space="preserve">
<path fill="#49CBBF" d="M275,0C123.122,0,0,123.122,0,275c0,151.878,123.122,275,275,275s275-123.122,275-275
	C550,123.122,426.878,0,275,0z M308,437.709c0,15.813-14.774,28.633-33,28.633s-33-12.819-33-28.633V208.625
	c0-15.813,14.774-28.633,33-28.633s33,12.819,33,28.633V437.709z M311.5,125.546c0,20.158-16.342,36.5-36.5,36.5
	s-36.5-16.342-36.5-36.5v-5.388c0-20.158,16.342-36.5,36.5-36.5s36.5,16.342,36.5,36.5V125.546z"/>
</svg>
